<?xml version="1.0" standalone="no"?>
<!DOCTYPE svg PUBLIC "-//W3C//DTD SVG 20010904//EN"
 "http://www.w3.org/TR/2001/REC-SVG-20010904/DTD/svg10.dtd">
<svg version="1.0" xmlns="http://www.w3.org/2000/svg"
 width="500.000000pt" height="500.000000pt" viewBox="0 0 500.000000 500.000000"
 preserveAspectRatio="xMidYMid meet">

<g transform="translate(0.000000,500.000000) scale(0.100000,-0.100000)"
fill="#fff" stroke="none">
<path d="M2640 3019 c0 -499 -5 -460 58 -405 l22 19 0 419 0 418 -40 0 -40 0
0 -451z"/>
<path d="M2092 2981 l-110 -329 51 -5 c101 -12 244 -97 366 -218 79 -78 80
-77 20 12 -64 96 -195 196 -316 244 -24 10 -43 22 -43 28 0 14 171 530 179
539 10 11 121 -21 171 -49 43 -25 44 -25 25 -4 -35 40 -122 84 -207 104 l-26
7 -110 -329z"/>
<path d="M2763 3303 c-15 -5 -17 -35 -4 -48 9 -10 181 -525 181 -543 0 -5 -24
-20 -54 -32 -130 -52 -266 -168 -334 -281 -26 -43 -25 -43 39 22 122 123 268
211 374 224 l53 7 -110 329 c-62 187 -115 329 -121 328 -7 0 -18 -3 -24 -6z"/>
<path d="M2520 2838 l0 -443 40 60 39 60 1 383 0 382 -40 0 -40 0 0 -442z"/>
<path d="M2055 3090 l-50 -17 -137 -408 c-76 -225 -136 -410 -133 -413 2 -3
15 2 27 10 37 24 155 64 248 84 88 18 285 25 370 12 43 -6 43 -6 -13 13 -139
45 -307 46 -471 4 -32 -9 -60 -14 -62 -12 -2 1 10 38 25 82 15 44 67 199 116
344 66 198 92 265 105 268 15 4 36 42 27 49 -1 1 -24 -6 -52 -16z"/>
<path d="M2890 3099 c0 -5 12 -22 26 -36 20 -20 54 -108 139 -362 62 -185 112
-337 111 -339 -2 -1 -30 4 -62 13 -164 42 -332 41 -471 -4 -56 -19 -56 -19
-13 -13 78 12 282 6 365 -11 86 -17 216 -60 253 -85 12 -8 25 -13 27 -10 3 2
-57 188 -133 413 l-137 408 -53 18 c-29 10 -52 13 -52 8z"/>
<path d="M2400 2802 l0 -288 26 -35 c14 -19 32 -47 40 -64 11 -26 13 18 14
323 l0 352 -40 0 -40 0 0 -288z"/>
<path d="M2280 2766 l0 -134 35 -31 c20 -17 38 -31 40 -31 3 0 5 74 5 165 l0
165 -40 0 -40 0 0 -134z"/>
<path d="M1180 2072 c-66 -33 -103 -119 -81 -192 54 -182 321 -140 321 50 0
56 -40 123 -86 145 -43 20 -111 19 -154 -3z m123 -26 c47 -19 69 -49 74 -100
7 -56 -10 -100 -49 -128 -59 -42 -137 -22 -178 45 -38 61 -14 146 51 179 41
22 60 22 102 4z"/>
<path d="M3225 2081 c-43 -18 -63 -68 -45 -111 9 -21 29 -35 81 -58 63 -28 69
-34 69 -60 0 -16 -7 -35 -15 -42 -21 -17 -83 -15 -104 4 -16 15 -19 15 -31 1
-11 -13 -10 -18 6 -30 24 -18 77 -29 107 -21 47 11 77 45 77 85 0 37 -22 81
-41 81 -26 0 -109 44 -114 61 -15 48 53 86 99 55 19 -12 27 -13 41 -2 15 11
16 13 1 26 -20 16 -103 23 -131 11z"/>
<path d="M850 1925 l0 -155 90 0 c73 0 90 3 90 15 0 12 -14 15 -70 15 l-70 0
0 140 c0 133 -1 140 -20 140 -19 0 -20 -7 -20 -155z"/>
<path d="M1520 1925 c0 -148 1 -155 20 -155 18 0 20 7 20 70 0 66 1 70 23 70
18 0 32 -15 61 -66 22 -36 45 -68 52 -71 33 -13 32 7 -6 69 -45 75 -46 78 -25
78 29 0 55 38 55 80 0 64 -24 80 -120 80 l-80 0 0 -155z m142 113 c46 -37 18
-85 -54 -94 l-48 -7 0 57 0 56 43 0 c24 0 50 -6 59 -12z"/>
<path d="M1830 1925 l0 -155 100 0 c81 0 100 3 100 15 0 11 -18 15 -82 17
l-83 3 0 55 0 55 75 5 c41 3 75 10 75 15 0 6 -34 12 -75 15 l-75 5 0 45 0 45
83 3 c64 2 82 6 82 17 0 12 -19 15 -100 15 l-100 0 0 -155z"/>
<path d="M2130 1925 c0 -148 1 -155 20 -155 18 0 20 8 22 125 l3 125 52 -123
c29 -67 58 -123 66 -125 8 -2 28 33 56 100 71 173 70 173 71 26 0 -121 1 -128
20 -128 19 0 20 7 20 156 l0 155 -32 -3 c-31 -3 -34 -8 -80 -117 -27 -63 -51
-117 -53 -119 -2 -3 -9 8 -15 24 -6 16 -30 71 -52 122 -38 85 -43 92 -69 92
l-29 0 0 -155z"/>
<path d="M2730 1925 c0 -148 1 -155 20 -155 19 0 20 7 20 155 0 148 -1 155
-20 155 -19 0 -20 -7 -20 -155z"/>
<path d="M2890 1925 c0 -131 2 -155 15 -155 12 0 15 14 15 69 l0 69 62 4 c51
4 65 9 85 32 30 36 30 80 -2 111 -21 22 -33 25 -100 25 l-75 0 0 -155z m144
109 c21 -20 20 -58 0 -75 -9 -7 -37 -13 -62 -13 l-47 -1 -3 53 -3 52 50 0 c32
0 55 -6 65 -16z"/>
<path d="M3470 1967 c0 -90 4 -119 19 -147 39 -74 158 -78 201 -7 17 27 20 51
20 150 0 110 -1 117 -20 117 -19 0 -20 -7 -20 -117 -1 -127 -6 -145 -53 -162
-33 -13 -69 -1 -91 31 -12 17 -16 48 -16 135 0 106 -1 113 -20 113 -19 0 -20
-7 -20 -113z"/>
<path d="M3820 1926 c0 -149 1 -156 20 -156 19 0 20 7 20 128 l1 127 28 -55
c15 -30 41 -88 57 -128 18 -45 34 -71 42 -70 8 2 37 58 65 125 l52 123 3 -125
c2 -117 4 -125 22 -125 19 0 20 7 20 155 l0 155 -28 0 c-27 0 -32 -7 -76 -112
-27 -62 -51 -116 -55 -120 -3 -4 -29 45 -56 110 -48 112 -52 117 -83 120 l-32
3 0 -155z"/>
<path d="M1180 1600 l0 -60 39 0 c40 0 54 10 65 47 10 31 -32 73 -74 73 l-30
0 0 -60z m88 7 c4 -37 -13 -57 -49 -57 -28 0 -29 2 -29 46 l0 45 38 -3 c32 -3
37 -7 40 -31z"/>
<path d="M1420 1640 c-54 -54 12 -137 76 -95 32 21 33 77 2 99 -30 21 -54 20
-78 -4z m68 -6 c30 -20 29 -59 -2 -79 -19 -13 -29 -14 -45 -5 -30 16 -32 66
-3 88 20 15 23 15 50 -4z"/>
<path d="M1648 1654 c-5 -4 -8 -31 -8 -61 l0 -53 38 1 c29 2 31 3 10 6 -25 4
-27 8 -30 60 -2 30 -6 51 -10 47z"/>
<path d="M1842 1644 c-18 -12 -22 -24 -20 -52 6 -77 109 -80 116 -3 6 60 -46
90 -96 55z m66 -10 c12 -8 22 -24 22 -35 0 -20 -33 -59 -50 -59 -15 0 -50 38
-50 55 0 16 34 55 48 55 4 0 18 -7 30 -16z"/>
<path d="M2067 1653 c-11 -10 -8 -113 3 -113 6 0 10 11 10 25 0 14 5 25 10 25
6 0 16 -11 22 -25 6 -14 15 -25 19 -25 5 0 3 12 -4 27 -9 21 -9 27 1 31 6 2
12 12 12 22 0 28 -54 52 -73 33z m56 -20 c9 -9 -12 -33 -29 -33 -8 0 -14 9
-14 20 0 19 28 28 43 13z"/>
<path d="M2410 1645 c-16 -20 -6 -43 25 -55 14 -5 25 -16 25 -25 0 -15 -9 -18
-45 -16 -19 1 -19 1 -2 -9 22 -14 53 -5 62 18 6 16 -19 45 -47 54 -7 3 -9 12
-5 22 5 12 13 15 28 11 15 -5 19 -4 15 4 -10 16 -41 14 -56 -4z"/>
<path d="M2603 1600 c0 -36 2 -50 4 -32 2 17 2 47 0 65 -2 17 -4 3 -4 -33z"/>
<path d="M2720 1650 c0 -5 10 -10 23 -10 20 0 22 -4 19 -50 -3 -32 0 -50 7
-50 7 0 11 20 11 50 0 43 3 50 20 50 11 0 20 5 20 10 0 6 -22 10 -50 10 -27 0
-50 -4 -50 -10z"/>
<path d="M3117 1653 c-11 -11 -47 -93 -47 -107 0 -6 5 -3 11 7 5 9 22 17 36
17 14 0 32 -8 39 -17 21 -28 16 -1 -9 56 -12 29 -26 49 -30 44z m23 -65 c0 -4
-9 -8 -21 -8 -15 0 -19 4 -15 16 3 9 6 21 6 27 1 13 30 -22 30 -35z"/>
<path d="M3292 1598 c1 -50 2 -54 5 -20 5 53 16 54 33 2 7 -22 16 -40 20 -40
4 0 16 19 26 42 l19 43 6 -45 c6 -42 6 -41 7 20 2 71 -7 71 -38 3 l-18 -38
-21 48 c-12 26 -26 47 -31 47 -6 0 -9 -28 -8 -62z"/>
<path d="M3540 1600 l0 -60 43 2 c36 1 38 2 10 5 -43 6 -47 40 -5 46 l27 4
-27 2 c-21 1 -28 6 -28 21 0 16 7 20 31 20 17 0 28 4 24 10 -3 6 -22 10 -41
10 l-34 0 0 -60z"/>
<path d="M3725 1650 c-3 -6 5 -10 19 -10 23 0 25 -4 29 -52 l3 -53 2 53 c2 45
5 52 22 52 11 0 20 5 20 10 0 6 -20 10 -44 10 -25 0 -48 -4 -51 -10z"/>
</g>
</svg>
